<svg xmlns="http://www.w3.org/2000/svg" width="464" height="352"><style>line, path, circle, rect, polygon{stroke:black;stroke-width:2;stroke-opacity:1;fill-opacity:1;stroke-linecap:round;stroke-linejoin:miter;}text{font-family:Iosevka Fixed, monospace;font-size:14px;}rect.backdrop{stroke:none;fill:white;}.broken{stroke-dasharray:8;}.filled{fill:black;}.bg_filled{fill:white;}.nofill{fill:white;}.end_marked_arrow{marker-end:url(#arrow);}.start_marked_arrow{marker-start:url(#arrow);}.end_marked_diamond{marker-end:url(#diamond);}.start_marked_diamond{marker-start:url(#diamond);}.end_marked_circle{marker-end:url(#circle);}.start_marked_circle{marker-start:url(#circle);}.end_marked_open_circle{marker-end:url(#open_circle);}.start_marked_open_circle{marker-start:url(#open_circle);}.end_marked_big_open_circle{marker-end:url(#big_open_circle);}.start_marked_big_open_circle{marker-start:url(#big_open_circle);}<!--separator--></style><defs><marker id="arrow" viewBox="-2 -2 8 8" refX="4" refY="2" markerWidth="7" markerHeight="7" orient="auto-start-reverse"><polygon points="0,0 0,4 4,2 0,0"></polygon></marker><marker id="diamond" viewBox="-2 -2 8 8" refX="4" refY="2" markerWidth="7" markerHeight="7" orient="auto-start-reverse"><polygon points="0,2 2,0 4,2 2,4 0,2"></polygon></marker><marker id="circle" viewBox="0 0 8 8" refX="4" refY="4" markerWidth="7" markerHeight="7" orient="auto-start-reverse"><circle cx="4" cy="4" r="2" class="filled"></circle></marker><marker id="open_circle" viewBox="0 0 8 8" refX="4" refY="4" markerWidth="7" markerHeight="7" orient="auto-start-reverse"><circle cx="4" cy="4" r="2" class="bg_filled"></circle></marker><marker id="big_open_circle" viewBox="0 0 8 8" refX="4" refY="4" markerWidth="7" markerHeight="7" orient="auto-start-reverse"><circle cx="4" cy="4" r="3" class="bg_filled"></circle></marker></defs><rect class="backdrop" x="0" y="0" width="464" height="352"></rect><text x="26" y="12" >Type</text><text x="82" y="12" >Op</text><text x="106" y="12" >#</text><text x="154" y="12" >Format</text><text x="210" y="12" >without</text><text x="274" y="12" >header</text><text x="82" y="44" >2</text><text x="98" y="44" >bytes</text><text x="170" y="44" >string</text><text x="250" y="44" >1</text><text x="266" y="44" >byte</text><text x="330" y="44" >string</text><text x="402" y="44" >1</text><text x="418" y="44" >byte</text><text x="90" y="76" >01,02</text><text x="162" y="76" >Filename</text><line x1="244" y1="64" x2="244" y2="80" class="solid"></line><text x="274" y="76" >0</text><line x1="300" y1="64" x2="300" y2="80" class="solid"></line><text x="338" y="76" >Mode</text><line x1="404" y1="64" x2="404" y2="80" class="solid"></line><text x="426" y="76" >0</text><text x="26" y="60" >RRQ</text><text x="26" y="76" >WRQ</text><text x="82" y="124" >2</text><text x="98" y="124" >bytes</text><text x="170" y="124" >2</text><text x="186" y="124" >bytes</text><text x="274" y="124" >n</text><text x="290" y="124" >bytes</text><text x="90" y="156" >03</text><text x="170" y="156" >Block</text><text x="218" y="156" >#</text><line x1="244" y1="144" x2="244" y2="160" class="solid"></line><text x="282" y="156" >Data</text><text x="26" y="156" >DATA</text><text x="82" y="204" >2</text><text x="98" y="204" >bytes</text><text x="170" y="204" >2</text><text x="186" y="204" >bytes</text><text x="90" y="236" >04</text><text x="170" y="236" >Block</text><text x="218" y="236" >#</text><text x="26" y="236" >ACK</text><text x="82" y="284" >2</text><text x="98" y="284" >bytes</text><text x="170" y="284" >2</text><text x="186" y="284" >bytes</text><text x="274" y="284" >string</text><text x="354" y="284" >1</text><text x="370" y="284" >byte</text><text x="90" y="316" >05</text><text x="162" y="316" >ErrorCode</text><line x1="244" y1="304" x2="244" y2="320" class="solid"></line><text x="274" y="316" >ErrMsg</text><line x1="348" y1="304" x2="348" y2="320" class="solid"></line><text x="378" y="316" >0</text><text x="26" y="316" >ERROR</text><g><line x1="76" y1="56" x2="452" y2="56" class="solid"></line><line x1="76" y1="56" x2="76" y2="88" class="solid"></line><line x1="140" y1="56" x2="140" y2="88" class="solid"></line><line x1="452" y1="56" x2="452" y2="88" class="solid"></line><line x1="76" y1="88" x2="452" y2="88" class="solid"></line></g><g><line x1="76" y1="136" x2="348" y2="136" class="solid"></line><line x1="76" y1="136" x2="76" y2="168" class="solid"></line><line x1="140" y1="136" x2="140" y2="168" class="solid"></line><line x1="348" y1="136" x2="348" y2="168" class="solid"></line><line x1="76" y1="168" x2="348" y2="168" class="solid"></line></g><g><line x1="76" y1="216" x2="244" y2="216" class="solid"></line><line x1="76" y1="216" x2="76" y2="248" class="solid"></line><line x1="140" y1="216" x2="140" y2="248" class="solid"></line><line x1="244" y1="216" x2="244" y2="248" class="solid"></line><line x1="76" y1="248" x2="244" y2="248" class="solid"></line></g><g><line x1="76" y1="296" x2="404" y2="296" class="solid"></line><line x1="76" y1="296" x2="76" y2="328" class="solid"></line><line x1="140" y1="296" x2="140" y2="328" class="solid"></line><line x1="404" y1="296" x2="404" y2="328" class="solid"></line><line x1="76" y1="328" x2="404" y2="328" class="solid"></line></g></svg>